<mxfile host="app.diagrams.net" agent="Mozilla/5.0 (Windows NT 10.0; Win64; x64) AppleWebKit/537.36 (KHTML, like Gecko) Chrome/139.0.0.0 Safari/537.36 Edg/139.0.0.0" version="27.1.4">
  <diagram name="Prediction Paradigm Evolution" id="prediction_evolution">
    <mxGraphModel dx="1600" dy="900" grid="1" gridSize="10" guides="1" tooltips="1" connect="1" arrows="1" fold="1" page="1" pageScale="1" pageWidth="1600" pageHeight="900" math="0" shadow="0">
      <root>
        <mxCell id="0" />
        <mxCell id="1" parent="0" />
        
        <!-- 整体背景 -->
        <mxCell id="bg" value="" style="rounded=1;whiteSpace=wrap;html=1;fillColor=#f8f9fa;strokeColor=none;" vertex="1" parent="1">
          <mxGeometry x="20" y="20" width="1560" height="860" as="geometry" />
        </mxCell>
        
        <!-- 主标题 -->
        <mxCell id="main_title" value="Prediction Paradigm Evolution: From Behavior-based to Structure-based" style="text;html=1;strokeColor=none;fillColor=none;align=center;verticalAlign=middle;whiteSpace=wrap;rounded=0;fontSize=22;fontStyle=1;fontColor=#2c3e50;" vertex="1" parent="1">
          <mxGeometry x="400" y="50" width="800" height="40" as="geometry" />
        </mxCell>
        
        <!-- 左半部分：行为驱动预测 -->
        <mxCell id="behavior_bg" value="" style="rounded=1;whiteSpace=wrap;html=1;fillColor=#ffffff;strokeColor=#74b9ff;strokeWidth=3;shadow=1;" vertex="1" parent="1">
          <mxGeometry x="60" y="130" width="580" height="580" as="geometry" />
        </mxCell>
        <mxCell id="behavior_title" value="Behavior-based Prediction" style="text;html=1;strokeColor=none;fillColor=none;align=center;verticalAlign=middle;whiteSpace=wrap;rounded=0;fontSize=20;fontStyle=1;fontColor=#74b9ff;" vertex="1" parent="1">
          <mxGeometry x="240" y="150" width="220" height="30" as="geometry" />
        </mxCell>
        <mxCell id="behavior_subtitle" value="前期工作中的预测模型" style="text;html=1;strokeColor=none;fillColor=none;align=center;verticalAlign=middle;whiteSpace=wrap;rounded=0;fontSize=14;fontColor=#636e72;" vertex="1" parent="1">
          <mxGeometry x="240" y="180" width="220" height="25" as="geometry" />
        </mxCell>
        
        <!-- 输入特征 -->
        <mxCell id="input_features_title" value="📊 Input Features" style="text;html=1;strokeColor=none;fillColor=none;align=center;verticalAlign=middle;whiteSpace=wrap;rounded=0;fontSize=16;fontStyle=1;fontColor=#2d3436;" vertex="1" parent="1">
          <mxGeometry x="120" y="230" width="150" height="25" as="geometry" />
        </mxCell>
        
        <mxCell id="cpu_feature" value="CPU Usage&lt;br&gt;&lt;font size=&quot;2&quot; color=&quot;#636e72&quot;&gt;历史占用率&lt;/font&gt;" style="rounded=1;whiteSpace=wrap;html=1;fillColor=#e8f4fd;strokeColor=#74b9ff;fontSize=12;fontStyle=1;shadow=1;" vertex="1" parent="1">
          <mxGeometry x="100" y="270" width="80" height="50" as="geometry" />
        </mxCell>
        
        <mxCell id="mem_feature" value="Memory&lt;br&gt;&lt;font size=&quot;2&quot; color=&quot;#636e72&quot;&gt;内存占用&lt;/font&gt;" style="rounded=1;whiteSpace=wrap;html=1;fillColor=#fff3e0;strokeColor=#ff9800;fontSize=12;fontStyle=1;shadow=1;" vertex="1" parent="1">
          <mxGeometry x="200" y="270" width="80" height="50" as="geometry" />
        </mxCell>
        
        <mxCell id="gpu_feature" value="GPU Util&lt;br&gt;&lt;font size=&quot;2&quot; color=&quot;#636e72&quot;&gt;GPU利用率&lt;/font&gt;" style="rounded=1;whiteSpace=wrap;html=1;fillColor=#e8f5e8;strokeColor=#4caf50;fontSize=12;fontStyle=1;shadow=1;" vertex="1" parent="1">
          <mxGeometry x="300" y="270" width="80" height="50" as="geometry" />
        </mxCell>
        
        <mxCell id="io_feature" value="I/O Ops&lt;br&gt;&lt;font size=&quot;2&quot; color=&quot;#636e72&quot;&gt;磁盘/网络&lt;/font&gt;" style="rounded=1;whiteSpace=wrap;html=1;fillColor=#fce4ec;strokeColor=#e91e63;fontSize=12;fontStyle=1;shadow=1;" vertex="1" parent="1">
          <mxGeometry x="400" y="270" width="80" height="50" as="geometry" />
        </mxCell>
        
        <mxCell id="runtime_feature" value="Runtime&lt;br&gt;&lt;font size=&quot;2&quot; color=&quot;#636e72&quot;&gt;执行时间&lt;/font&gt;" style="rounded=1;whiteSpace=wrap;html=1;fillColor=#f3e5f5;strokeColor=#9c27b0;fontSize=12;fontStyle=1;shadow=1;" vertex="1" parent="1">
          <mxGeometry x="500" y="270" width="80" height="50" as="geometry" />
        </mxCell>
        
        <!-- 箭头指向模型 -->
        <mxCell id="to_behavior_model" value="" style="endArrow=classic;html=1;rounded=1;strokeWidth=3;strokeColor=#636e72;curved=1;" edge="1" parent="1">
          <mxGeometry width="50" height="50" relative="1" as="geometry">
            <mxPoint x="350" y="340" as="sourcePoint" />
            <mxPoint x="350" y="380" as="targetPoint" />
          </mxGeometry>
        </mxCell>
        
        <!-- 黑盒模型 -->
        <mxCell id="blackbox_model" value="" style="rounded=1;whiteSpace=wrap;html=1;fillColor=#2d3436;strokeColor=#636e72;strokeWidth=3;shadow=1;" vertex="1" parent="1">
          <mxGeometry x="200" y="400" width="300" height="120" as="geometry" />
        </mxCell>
        <mxCell id="blackbox_label" value="🔒 Black Box Model" style="text;html=1;strokeColor=none;fillColor=none;align=center;verticalAlign=middle;whiteSpace=wrap;rounded=0;fontSize=16;fontStyle=1;fontColor=#ffffff;" vertex="1" parent="1">
          <mxGeometry x="270" y="420" width="160" height="25" as="geometry" />
        </mxCell>
        <mxCell id="blackbox_sublabel" value="Interference Model / Resource Usage Model" style="text;html=1;strokeColor=none;fillColor=none;align=center;verticalAlign=middle;whiteSpace=wrap;rounded=0;fontSize=12;fontColor=#ddd;" vertex="1" parent="1">
          <mxGeometry x="220" y="450" width="260" height="30" as="geometry" />
        </mxCell>
        
        <!-- 输出 -->
        <mxCell id="behavior_output" value="Performance&lt;br&gt;Prediction" style="rounded=1;whiteSpace=wrap;html=1;fillColor=#74b9ff;strokeColor=#0984e3;fontSize=14;fontStyle=1;fontColor=#ffffff;shadow=1;" vertex="1" parent="1">
          <mxGeometry x="300" y="550" width="100" height="50" as="geometry" />
        </mxCell>
        
        <mxCell id="to_behavior_output" value="" style="endArrow=classic;html=1;rounded=0;strokeWidth=3;strokeColor=#636e72;" edge="1" parent="1" source="blackbox_model" target="behavior_output">
          <mxGeometry width="50" height="50" relative="1" as="geometry">
            <mxPoint x="400" y="600" as="sourcePoint" />
            <mxPoint x="450" y="550" as="targetPoint" />
          </mxGeometry>
        </mxCell>
        
        <!-- 优缺点 -->
        <mxCell id="behavior_pros" value="✅ 优点:&lt;br&gt;• 实现简单&lt;br&gt;• 对特定场景有效&lt;br&gt;• 快速部署" style="text;html=1;strokeColor=#27ae60;fillColor=#eafaf1;align=left;verticalAlign=middle;whiteSpace=wrap;rounded=1;fontSize=12;fontStyle=1;fontColor=#2c3e50;" vertex="1" parent="1">
          <mxGeometry x="100" y="620" width="140" height="70" as="geometry" />
        </mxCell>
        
        <mxCell id="behavior_cons" value="❌ 局限性:&lt;br&gt;• 依赖历史数据&lt;br&gt;• 泛化能力弱&lt;br&gt;• 黑盒不可解释" style="text;html=1;strokeColor=#e74c3c;fillColor=#fdebeb;align=left;verticalAlign=middle;whiteSpace=wrap;rounded=1;fontSize=12;fontStyle=1;fontColor=#2c3e50;" vertex="1" parent="1">
          <mxGeometry x="460" y="620" width="140" height="70" as="geometry" />
        </mxCell>
        
        <!-- 中间演进箭头 -->
        <mxCell id="evolution_arrow" value="" style="shape=singleArrow;whiteSpace=wrap;html=1;fillColor=#6c5ce7;strokeColor=#5f3dc4;shadow=1;" vertex="1" parent="1">
          <mxGeometry x="680" y="400" width="200" height="80" as="geometry" />
        </mxCell>
        <mxCell id="evolution_text" value="预测范式演进&lt;br&gt;Prediction Paradigm&lt;br&gt;Evolution" style="text;html=1;strokeColor=none;fillColor=none;align=center;verticalAlign=middle;whiteSpace=wrap;rounded=0;fontSize=14;fontStyle=1;fontColor=#ffffff;" vertex="1" parent="1">
          <mxGeometry x="710" y="425" width="140" height="30" as="geometry" />
        </mxCell>
        
        <!-- 右半部分：结构驱动预测 -->
        <mxCell id="structure_bg" value="" style="rounded=1;whiteSpace=wrap;html=1;fillColor=#ffffff;strokeColor=#00b894;strokeWidth=3;shadow=1;" vertex="1" parent="1">
          <mxGeometry x="920" y="130" width="580" height="580" as="geometry" />
        </mxCell>
        <mxCell id="structure_title" value="Structure-based Prediction" style="text;html=1;strokeColor=none;fillColor=none;align=center;verticalAlign=middle;whiteSpace=wrap;rounded=0;fontSize=20;fontStyle=1;fontColor=#00b894;" vertex="1" parent="1">
          <mxGeometry x="1100" y="150" width="220" height="30" as="geometry" />
        </mxCell>
        <mxCell id="structure_subtitle" value="新一代预测模型" style="text;html=1;strokeColor=none;fillColor=none;align=center;verticalAlign=middle;whiteSpace=wrap;rounded=0;fontSize=14;fontColor=#636e72;" vertex="1" parent="1">
          <mxGeometry x="1100" y="180" width="220" height="25" as="geometry" />
        </mxCell>
        
        <!-- 输入结构 -->
        <mxCell id="input_structure_title" value="🏗️ Input Structure" style="text;html=1;strokeColor=none;fillColor=none;align=center;verticalAlign=middle;whiteSpace=wrap;rounded=0;fontSize=16;fontStyle=1;fontColor=#2d3436;" vertex="1" parent="1">
          <mxGeometry x="1140" y="230" width="150" height="25" as="geometry" />
        </mxCell>
        
        <!-- 计算图结构 -->
        <mxCell id="comp_graph_bg" value="" style="rounded=1;whiteSpace=wrap;html=1;fillColor=#f8f9fa;strokeColor=#dee2e6;strokeWidth=2;dashed=1;" vertex="1" parent="1">
          <mxGeometry x="980" y="270" width="480" height="80" as="geometry" />
        </mxCell>
        <mxCell id="comp_graph_title" value="Computation Graph (DAG)" style="text;html=1;strokeColor=none;fillColor=none;align=center;verticalAlign=middle;whiteSpace=wrap;rounded=0;fontSize=12;fontStyle=1;fontColor=#636e72;" vertex="1" parent="1">
          <mxGeometry x="1160" y="275" width="120" height="20" as="geometry" />
        </mxCell>
        
        <!-- 算子节点 -->
        <mxCell id="op1" value="Conv2D" style="ellipse;whiteSpace=wrap;html=1;aspect=fixed;fontSize=10;fontStyle=1;fillColor=#e8f4fd;strokeColor=#3498db;strokeWidth=2;" vertex="1" parent="1">
          <mxGeometry x="1000" y="300" width="40" height="40" as="geometry" />
        </mxCell>
        
        <mxCell id="op2" value="ReLU" style="ellipse;whiteSpace=wrap;html=1;aspect=fixed;fontSize=10;fontStyle=1;fillColor=#fff3e0;strokeColor=#ff9800;strokeWidth=2;" vertex="1" parent="1">
          <mxGeometry x="1070" y="300" width="40" height="40" as="geometry" />
        </mxCell>
        
        <mxCell id="op3" value="Pool" style="ellipse;whiteSpace=wrap;html=1;aspect=fixed;fontSize=10;fontStyle=1;fillColor=#e8f5e8;strokeColor=#4caf50;strokeWidth=2;" vertex="1" parent="1">
          <mxGeometry x="1140" y="300" width="40" height="40" as="geometry" />
        </mxCell>
        
        <mxCell id="op4" value="Dense" style="ellipse;whiteSpace=wrap;html=1;aspect=fixed;fontSize=10;fontStyle=1;fillColor=#fce4ec;strokeColor=#e91e63;strokeWidth=2;" vertex="1" parent="1">
          <mxGeometry x="1210" y="300" width="40" height="40" as="geometry" />
        </mxCell>
        
        <mxCell id="op5" value="Softmax" style="ellipse;whiteSpace=wrap;html=1;aspect=fixed;fontSize=10;fontStyle=1;fillColor=#f3e5f5;strokeColor=#9c27b0;strokeWidth=2;" vertex="1" parent="1">
          <mxGeometry x="1280" y="300" width="40" height="40" as="geometry" />
        </mxCell>
        
        <mxCell id="op6" value="MatMul" style="ellipse;whiteSpace=wrap;html=1;aspect=fixed;fontSize=10;fontStyle=1;fillColor=#fff8e1;strokeColor=#ffc107;strokeWidth=2;" vertex="1" parent="1">
          <mxGeometry x="1350" y="300" width="40" height="40" as="geometry" />
        </mxCell>
        
        <mxCell id="op7" value="Attention" style="ellipse;whiteSpace=wrap;html=1;aspect=fixed;fontSize=10;fontStyle=1;fillColor=#e1f5fe;strokeColor=#00bcd4;strokeWidth=2;" vertex="1" parent="1">
          <mxGeometry x="1420" y="300" width="40" height="40" as="geometry" />
        </mxCell>
        
        <!-- 算子连接 -->
        <mxCell id="op_edge1" value="" style="endArrow=classic;html=1;rounded=1;strokeWidth=2;strokeColor=#34495e;curved=1;" edge="1" parent="1" source="op1" target="op2">
          <mxGeometry width="50" height="50" relative="1" as="geometry">
            <mxPoint x="1100" y="400" as="sourcePoint" />
            <mxPoint x="1150" y="350" as="targetPoint" />
          </mxGeometry>
        </mxCell>
        
        <mxCell id="op_edge2" value="" style="endArrow=classic;html=1;rounded=1;strokeWidth=2;strokeColor=#34495e;curved=1;" edge="1" parent="1" source="op2" target="op3">
          <mxGeometry width="50" height="50" relative="1" as="geometry">
            <mxPoint x="1100" y="400" as="sourcePoint" />
            <mxPoint x="1150" y="350" as="targetPoint" />
          </mxGeometry>
        </mxCell>
        
        <mxCell id="op_edge3" value="" style="endArrow=classic;html=1;rounded=1;strokeWidth=2;strokeColor=#34495e;curved=1;" edge="1" parent="1" source="op3" target="op4">
          <mxGeometry width="50" height="50" relative="1" as="geometry">
            <mxPoint x="1100" y="400" as="sourcePoint" />
            <mxPoint x="1150" y="350" as="targetPoint" />
          </mxGeometry>
        </mxCell>
        
        <mxCell id="op_edge4" value="" style="endArrow=classic;html=1;rounded=1;strokeWidth=2;strokeColor=#34495e;curved=1;" edge="1" parent="1" source="op4" target="op5">
          <mxGeometry width="50" height="50" relative="1" as="geometry">
            <mxPoint x="1100" y="400" as="sourcePoint" />
            <mxPoint x="1150" y="350" as="targetPoint" />
          </mxGeometry>
        </mxCell>
        
        <mxCell id="op_edge5" value="" style="endArrow=classic;html=1;rounded=1;strokeWidth=2;strokeColor=#34495e;curved=1;" edge="1" parent="1" source="op6" target="op7">
          <mxGeometry width="50" height="50" relative="1" as="geometry">
            <mxPoint x="1100" y="400" as="sourcePoint" />
            <mxPoint x="1150" y="350" as="targetPoint" />
          </mxGeometry>
        </mxCell>
        
        <!-- 箭头指向模型 -->
        <mxCell id="to_structure_model" value="" style="endArrow=classic;html=1;rounded=1;strokeWidth=3;strokeColor=#636e72;curved=1;" edge="1" parent="1">
          <mxGeometry width="50" height="50" relative="1" as="geometry">
            <mxPoint x="1210" y="370" as="sourcePoint" />
            <mxPoint x="1210" y="400" as="targetPoint" />
          </mxGeometry>
        </mxCell>
        
        <!-- 透明模型 -->
        <mxCell id="transparent_model" value="" style="rounded=1;whiteSpace=wrap;html=1;fillColor=none;strokeColor=#00b894;strokeWidth=4;shadow=1;dashed=1;" vertex="1" parent="1">
          <mxGeometry x="1060" y="420" width="300" height="100" as="geometry" />
        </mxCell>
        <mxCell id="transparent_label" value="🔍 Transparent Model" style="text;html=1;strokeColor=none;fillColor=none;align=center;verticalAlign=middle;whiteSpace=wrap;rounded=0;fontSize=16;fontStyle=1;fontColor=#00b894;" vertex="1" parent="1">
          <mxGeometry x="1130" y="440" width="160" height="25" as="geometry" />
        </mxCell>
        <mxCell id="transparent_sublabel" value="Graph Neural Network (GNN)" style="text;html=1;strokeColor=none;fillColor=none;align=center;verticalAlign=middle;whiteSpace=wrap;rounded=0;fontSize=12;fontColor=#636e72;" vertex="1" parent="1">
          <mxGeometry x="1130" y="470" width="160" height="25" as="geometry" />
        </mxCell>
        
        <!-- 输出 -->
        <mxCell id="structure_output" value="Hardware-Aware&lt;br&gt;Performance&lt;br&gt;Prediction" style="rounded=1;whiteSpace=wrap;html=1;fillColor=#00b894;strokeColor=#00a085;fontSize=13;fontStyle=1;fontColor=#ffffff;shadow=1;" vertex="1" parent="1">
          <mxGeometry x="1160" y="550" width="100" height="60" as="geometry" />
        </mxCell>
        
        <mxCell id="to_structure_output" value="" style="endArrow=classic;html=1;rounded=0;strokeWidth=3;strokeColor=#636e72;" edge="1" parent="1" source="transparent_model" target="structure_output">
          <mxGeometry width="50" height="50" relative="1" as="geometry">
            <mxPoint x="1260" y="600" as="sourcePoint" />
            <mxPoint x="1310" y="550" as="targetPoint" />
          </mxGeometry>
        </mxCell>
        
        <!-- 优势特点 -->
        <mxCell id="structure_pros" value="🎯 目标:&lt;br&gt;• 更精准预测&lt;br&gt;• 硬件感知&lt;br&gt;• 泛化性好&lt;br&gt;• 可解释性强" style="text;html=1;strokeColor=#00b894;fillColor=#eafaf1;align=left;verticalAlign=middle;whiteSpace=wrap;rounded=1;fontSize=12;fontStyle=1;fontColor=#2c3e50;" vertex="1" parent="1">
          <mxGeometry x="960" y="620" width="140" height="80" as="geometry" />
        </mxCell>
        
        <mxCell id="structure_advantages" value="🚀 优势:&lt;br&gt;• 结构本质建模&lt;br&gt;• 零样本预测&lt;br&gt;• 跨硬件适用&lt;br&gt;• 端到端优化" style="text;html=1;strokeColor=#6c5ce7;fillColor=#f4f3ff;align=left;verticalAlign=middle;whiteSpace=wrap;rounded=1;fontSize=12;fontStyle=1;fontColor=#2c3e50;" vertex="1" parent="1">
          <mxGeometry x="1320" y="620" width="140" height="80" as="geometry" />
        </mxCell>
        
        <!-- 底部对比总结 -->
        <mxCell id="comparison_bg" value="" style="rounded=1;whiteSpace=wrap;html=1;fillColor=#2d3436;strokeColor=none;shadow=1;" vertex="1" parent="1">
          <mxGeometry x="300" y="760" width="1000" height="80" as="geometry" />
        </mxCell>
        <mxCell id="comparison_text" value="From Black-box Empirical Models to White-box Structural Models: Enabling Better Generalization and Interpretability" style="text;html=1;strokeColor=none;fillColor=none;align=center;verticalAlign=middle;whiteSpace=wrap;rounded=0;fontSize=18;fontStyle=1;fontColor=#ffffff;" vertex="1" parent="1">
          <mxGeometry x="320" y="785" width="960" height="30" as="geometry" />
        </mxCell>
        
      </root>
    </mxGraphModel>
  </diagram>
</mxfile>